<svg width="24" height="24" viewBox="0 0 24 24" fill="none" xmlns="http://www.w3.org/2000/svg">
<path d="M11.0771 21.5996C10.7712 21.5996 10.514 21.515 10.3057 21.3457C10.0973 21.1829 9.95736 20.9453 9.88574 20.6328L9.46582 18.8359L8.92871 18.6406L7.35645 19.6172C7.09603 19.7865 6.83236 19.8548 6.56543 19.8223C6.2985 19.7962 6.05436 19.6758 5.83301 19.4609L4.53418 18.1621C4.31283 17.9473 4.18587 17.7064 4.15332 17.4395C4.12728 17.166 4.19889 16.8958 4.36816 16.6289L5.35449 15.0664L5.15918 14.5391L3.3623 14.1289C3.05632 14.0573 2.81868 13.9173 2.64941 13.709C2.48014 13.5007 2.39551 13.2402 2.39551 12.9277V11.0918C2.39551 10.7858 2.48014 10.5286 2.64941 10.3203C2.81868 10.112 3.05632 9.97201 3.3623 9.90039L5.14941 9.48047L5.35449 8.94336L4.3584 7.38086C4.18913 7.11393 4.12077 6.84701 4.15332 6.58008C4.18587 6.31315 4.31283 6.06901 4.53418 5.84766L5.83301 4.55859C6.04785 4.33724 6.28874 4.21354 6.55566 4.1875C6.82259 4.15495 7.08626 4.22331 7.34668 4.39258L8.92871 5.36914L9.46582 5.17383L9.88574 3.36719C9.95736 3.0612 10.0973 2.82357 10.3057 2.6543C10.514 2.48503 10.7712 2.40039 11.0771 2.40039H12.9326C13.2386 2.40039 13.4958 2.48503 13.7041 2.6543C13.9124 2.82357 14.0524 3.0612 14.124 3.36719L14.5439 5.17383L15.0811 5.36914L16.6436 4.39258C16.9105 4.22331 17.1774 4.15495 17.4443 4.1875C17.7113 4.21354 17.9521 4.33724 18.167 4.55859L19.4658 5.84766C19.6872 6.06901 19.8109 6.31315 19.8369 6.58008C19.8695 6.84701 19.8011 7.11393 19.6318 7.38086L18.6455 8.94336L18.8506 9.48047L20.6377 9.90039C20.9502 9.97201 21.1878 10.112 21.3506 10.3203C21.5199 10.5286 21.6045 10.7858 21.6045 11.0918V12.9277C21.6045 13.2402 21.5199 13.5007 21.3506 13.709C21.1878 13.9173 20.9502 14.0573 20.6377 14.1289L18.8408 14.5391L18.6357 15.0664L19.6318 16.6289C19.8011 16.8958 19.8695 17.166 19.8369 17.4395C19.8109 17.7064 19.6839 17.9473 19.4561 18.1621L18.1572 19.4609C17.9424 19.6758 17.7015 19.7962 17.4346 19.8223C17.1676 19.8548 16.904 19.7865 16.6436 19.6172L15.0713 18.6406L14.5439 18.8359L14.124 20.6328C14.0524 20.9453 13.9124 21.1829 13.7041 21.3457C13.4958 21.515 13.2386 21.5996 12.9326 21.5996H11.0771ZM11.1748 20.6914H12.8252C13.0791 20.6914 13.2321 20.571 13.2842 20.3301L13.8018 18.1133C14.0426 18.0482 14.2705 17.9733 14.4854 17.8887C14.7067 17.7975 14.9053 17.7031 15.0811 17.6055L17.0146 18.8164C17.2165 18.9531 17.4118 18.9271 17.6006 18.7383L18.7529 17.5859C18.9287 17.4167 18.9482 17.2246 18.8115 17.0098L17.6104 15.0762C17.7015 14.9004 17.7926 14.7018 17.8838 14.4805C17.9749 14.2591 18.0498 14.0312 18.1084 13.7969L20.335 13.2891C20.5758 13.237 20.6963 13.084 20.6963 12.8301V11.1895C20.6963 10.9421 20.5758 10.7923 20.335 10.7402L18.1182 10.2227C18.0531 9.97526 17.9717 9.74089 17.874 9.51953C17.7829 9.29818 17.6982 9.10286 17.6201 8.93359L18.8115 7.00977C18.9548 6.79492 18.9352 6.59635 18.7529 6.41406L17.6104 5.27148C17.4215 5.08919 17.223 5.06641 17.0146 5.20312L15.0908 6.4043C14.9085 6.31315 14.7067 6.22526 14.4854 6.14062C14.2705 6.04948 14.0426 5.9681 13.8018 5.89648L13.2842 3.66992C13.2321 3.42904 13.0791 3.30859 12.8252 3.30859H11.1748C10.9274 3.30859 10.7777 3.42904 10.7256 3.66992L10.2178 5.89648C9.9834 5.96159 9.75228 6.03971 9.52441 6.13086C9.29655 6.21549 9.09147 6.30339 8.90918 6.39453L6.98535 5.20312C6.77702 5.06641 6.57845 5.08919 6.38965 5.27148L5.2373 6.41406C5.06152 6.59635 5.04199 6.79492 5.17871 7.00977L6.37988 8.93359C6.30827 9.10286 6.22363 9.30143 6.12598 9.5293C6.03483 9.75065 5.95671 9.98177 5.8916 10.2227L3.66504 10.7402C3.42415 10.7923 3.30371 10.9421 3.30371 11.1895V12.8301C3.30371 13.084 3.42415 13.237 3.66504 13.2891L5.8916 13.7969C5.95671 14.0312 6.03483 14.2591 6.12598 14.4805C6.21712 14.7018 6.30501 14.9004 6.38965 15.0762L5.18848 17.0098C5.05176 17.2246 5.07129 17.4167 5.24707 17.5859L6.38965 18.7383C6.58496 18.9271 6.78353 18.9531 6.98535 18.8164L8.91895 17.6055C9.09473 17.7031 9.29329 17.7975 9.51465 17.8887C9.74251 17.9733 9.97363 18.0482 10.208 18.1133L10.7256 20.3301C10.7777 20.571 10.9274 20.6914 11.1748 20.6914ZM12.0146 15.5254C11.3636 15.5254 10.7712 15.3659 10.2373 15.0469C9.70345 14.7279 9.27702 14.3014 8.95801 13.7676C8.639 13.2337 8.47949 12.6413 8.47949 11.9902C8.47949 11.3522 8.639 10.7695 8.95801 10.2422C9.27702 9.70833 9.70345 9.2819 10.2373 8.96289C10.7777 8.64388 11.3701 8.48438 12.0146 8.48438C12.6592 8.48438 13.2451 8.64388 13.7725 8.96289C14.3063 9.2819 14.7327 9.70833 15.0518 10.2422C15.3708 10.7695 15.5303 11.3522 15.5303 11.9902C15.5303 12.6413 15.3708 13.2337 15.0518 13.7676C14.7327 14.3014 14.3063 14.7279 13.7725 15.0469C13.2451 15.3659 12.6592 15.5254 12.0146 15.5254ZM12.0146 14.6172C12.4834 14.6172 12.9163 14.5 13.3135 14.2656C13.7106 14.0247 14.0264 13.7057 14.2607 13.3086C14.4951 12.9115 14.6123 12.472 14.6123 11.9902C14.6123 11.5215 14.4951 11.0918 14.2607 10.7012C14.0264 10.304 13.7106 9.98828 13.3135 9.75391C12.9163 9.51302 12.4834 9.39258 12.0146 9.39258C11.5394 9.39258 11.1032 9.51302 10.7061 9.75391C10.3089 9.98828 9.98991 10.304 9.74902 10.7012C9.50814 11.0918 9.3877 11.5215 9.3877 11.9902C9.3877 12.472 9.50488 12.9115 9.73926 13.3086C9.98014 13.7057 10.2992 14.0247 10.6963 14.2656C11.0934 14.5 11.5329 14.6172 12.0146 14.6172Z" fill="#333333"/>
</svg>
